<?xml version="1.0" standalone="no"?>
<!DOCTYPE svg PUBLIC "-//W3C//DTD SVG 20010904//EN"
 "http://www.w3.org/TR/2001/REC-SVG-20010904/DTD/svg10.dtd">
<svg version="1.0" xmlns="http://www.w3.org/2000/svg"
 width="400.000000pt" height="400.000000pt" viewBox="0 0 400.000000 400.000000"
 preserveAspectRatio="xMidYMid meet">
<metadata>
Created by potrace 1.11, written by Peter Selinger 2001-2013
</metadata>
<g transform="translate(0.000000,400.000000) scale(0.100000,-0.100000)"
fill="#000000" stroke="none">
<path d="M1639 3598 c-7 -24 -13 -47 -15 -53 -3 -16 -43 -166 -159 -595 -58
-217 -124 -460 -145 -540 -21 -80 -104 -390 -185 -690 -81 -300 -148 -552
-150 -560 -11 -44 -58 -222 -71 -267 l-15 -53 -450 0 -449 0 0 -170 0 -170
582 2 581 3 11 35 11 36 613 -1 c416 0 616 3 622 10 5 6 13 29 19 50 5 22 23
90 39 150 17 61 67 247 112 415 111 415 206 770 280 1043 34 125 63 235 65
245 4 18 115 430 181 675 l38 137 423 0 423 0 0 170 0 170 -1175 0 -1174 0
-12 -42z m1310 -330 c-5 -18 -21 -76 -35 -128 -14 -52 -53 -196 -86 -320 -33
-124 -62 -232 -63 -240 -2 -8 -4 -15 -5 -15 -1 0 -3 -7 -5 -15 -1 -8 -40 -152
-85 -320 -45 -168 -83 -312 -85 -320 -2 -8 -32 -123 -68 -255 -36 -132 -102
-377 -147 -545 -44 -168 -85 -314 -89 -325 -8 -20 -17 -20 -524 -20 -284 0
-517 2 -520 5 -2 3 16 77 40 165 24 88 57 210 73 270 15 61 54 205 85 320 31
116 59 221 61 234 3 14 7 28 9 31 2 4 25 85 50 181 118 443 331 1237 338 1259
3 8 8 27 11 43 l6 27 524 0 525 0 -10 -32z"/>
</g>
</svg>
